<svg xmlns="http://www.w3.org/2000/svg" width="21" height="18" viewBox="0 0 21 18"><g transform="translate(-0.25 -2.048)"><path d="M10.75,20.048A.75.75,0,0,1,10,19.3a3.75,3.75,0,0,1,3.75-3.75h6v-12h-6A2.25,2.25,0,0,0,11.5,5.8a.75.75,0,0,1-1.5,0,3.75,3.75,0,0,1,3.75-3.75h6a1.5,1.5,0,0,1,1.5,1.5v12a1.5,1.5,0,0,1-1.5,1.5h-6A2.25,2.25,0,0,0,11.5,19.3.75.75,0,0,1,10.75,20.048Z" fill="#333"/><path d="M10.75,20.048A.75.75,0,0,1,10,19.3a2.25,2.25,0,0,0-2.25-2.25h-6a1.5,1.5,0,0,1-1.5-1.5v-12a1.5,1.5,0,0,1,1.5-1.5h6A3.75,3.75,0,0,1,11.5,5.8V19.3A.75.75,0,0,1,10.75,20.048Zm-9-16.5v12h6A3.722,3.722,0,0,1,10,16.3V5.8a2.25,2.25,0,0,0-2.25-2.25Z" fill="#333"/></g></svg>