<svg xmlns="http://www.w3.org/2000/svg" width="19.5" height="17.25" viewBox="0 0 19.5 17.25"><g transform="translate(-1.25 -1.75)"><path d="M20,19a.749.749,0,0,1-.335-.079L17,17.589l-2.665,1.332a.75.75,0,0,1-.671,0L11,17.589,8.335,18.921a.75.75,0,0,1-.671,0L5,17.589,2.335,18.921A.75.75,0,0,1,1.25,18.25v-15a1.5,1.5,0,0,1,1.5-1.5h16.5a1.5,1.5,0,0,1,1.5,1.5v15A.75.75,0,0,1,20,19Zm-9-3a.75.75,0,0,1,.335.079L14,17.411l2.665-1.332a.75.75,0,0,1,.671,0l1.915.957V3.25H2.75V17.036l1.915-.957a.75.75,0,0,1,.671,0L8,17.411l2.665-1.332A.75.75,0,0,1,11,16Z" fill="#1e1932"/><path d="M17,9.25H12.5a.75.75,0,0,1,0-1.5H17a.75.75,0,0,1,0,1.5Z" fill="#1e1932"/><path d="M17,12.25H12.5a.75.75,0,0,1,0-1.5H17a.75.75,0,0,1,0,1.5Z" fill="#1e1932"/><path d="M5,6.25H9.5a.75.75,0,0,1,.75.75v6a.75.75,0,0,1-.75.75H5A.75.75,0,0,1,4.25,13V7A.75.75,0,0,1,5,6.25Zm3.75,1.5h-3v4.5h3Z" fill="#1e1932"/></g></svg>