<svg xmlns="http://www.w3.org/2000/svg" width="19.5" height="17.89" viewBox="0 0 19.5 17.89"><path d="M.689.689A1.5,1.5,0,0,1,1.75.25h16.5a1.5,1.5,0,0,1,1.5,1.5v12a1.5,1.5,0,0,1-1.5,1.5H5.789l-.1.035-2.977,2.5A1.5,1.5,0,0,1,.25,16.64V1.75A1.5,1.5,0,0,1,.689.689ZM18.25,1.75H1.75V16.64l3.078-2.588a.749.749,0,0,1,.226-.131L5.4,13.8a.75.75,0,0,1,.257-.045H18.25Zm-12,4.5A.75.75,0,0,1,7,5.5h6A.75.75,0,0,1,13,7H7A.75.75,0,0,1,6.25,6.25ZM7,8.5A.75.75,0,0,0,7,10h6a.75.75,0,0,0,0-1.5Z" transform="translate(-0.25 -0.25)" fill="#333" fill-rule="evenodd"/></svg>