<svg xmlns="http://www.w3.org/2000/svg" width="52" height="58.545" viewBox="0 0 52 58.545"><path d="M4.182,19.636H47.818A4.187,4.187,0,0,1,52,23.818V54.364a4.187,4.187,0,0,1-4.182,4.182H4.182A4.187,4.187,0,0,1,0,54.364V23.818A4.187,4.187,0,0,1,4.182,19.636ZM47.818,54.545A.182.182,0,0,0,48,54.364V23.818a.182.182,0,0,0-.182-.182H4.182A.182.182,0,0,0,4,23.818V54.364a.182.182,0,0,0,.182.182Z" fill="#1e1932"/><path d="M35.818,23.636a2,2,0,0,1-2-2V11.818a7.818,7.818,0,1,0-15.636,0v9.818a2,2,0,0,1-4,0V11.818a11.818,11.818,0,1,1,23.636,0v9.818A2,2,0,0,1,35.818,23.636Z" fill="#1e1932"/></svg>