<svg xmlns="http://www.w3.org/2000/svg" width="19.525" height="19.876" viewBox="0 0 19.525 19.876"><g transform="translate(-0.249 -0.048)"><path d="M10,13.923a4.5,4.5,0,1,1,4.5-4.5A4.505,4.505,0,0,1,10,13.923Zm0-7.5a3,3,0,1,0,3,3A3,3,0,0,0,10,6.423Z" fill="#333"/><path d="M16.019,17.614a.75.75,0,0,1-.669-.41,6,6,0,0,0-10.7,0,.75.75,0,1,1-1.337-.68,7.5,7.5,0,0,1,13.375,0,.75.75,0,0,1-.668,1.09Z" fill="#333"/><path d="M16.75,5.673A2.25,2.25,0,1,1,19,3.423,2.253,2.253,0,0,1,16.75,5.673Zm0-3a.75.75,0,1,0,.75.75A.751.751,0,0,0,16.75,2.673Z" fill="#333"/><path d="M16.75,2.673a.75.75,0,0,1-.75-.75V.8a.75.75,0,0,1,1.5,0V1.923A.75.75,0,0,1,16.75,2.673Z" fill="#333"/><path d="M15.45,3.423a.746.746,0,0,1-.374-.1L14.1,2.76a.75.75,0,1,1,.75-1.3l.974.563a.75.75,0,0,1-.376,1.4Z" fill="#333"/><path d="M14.477,5.485a.75.75,0,0,1-.376-1.4l.974-.563a.75.75,0,1,1,.75,1.3l-.974.563A.747.747,0,0,1,14.477,5.485Z" fill="#333"/><path d="M16.75,6.8a.75.75,0,0,1-.75-.75V4.923a.75.75,0,0,1,1.5,0V6.048A.75.75,0,0,1,16.75,6.8Z" fill="#333"/><path d="M19.023,5.485a.747.747,0,0,1-.374-.1l-.974-.562a.75.75,0,1,1,.75-1.3l.974.563a.75.75,0,0,1-.376,1.4Z" fill="#333"/><path d="M18.05,3.423a.75.75,0,0,1-.376-1.4l.974-.563a.75.75,0,0,1,.75,1.3l-.974.563A.747.747,0,0,1,18.05,3.423Z" fill="#333"/><path d="M10.006,19.924A9.751,9.751,0,1,1,10,.423c.3,0,.608.014.9.041a.75.75,0,0,1-.138,1.494c-.251-.023-.509-.035-.766-.035a8.25,8.25,0,1,0,8.25,8.25,8.381,8.381,0,0,0-.059-.989.75.75,0,1,1,1.489-.177,9.884,9.884,0,0,1,.069,1.167,9.753,9.753,0,0,1-9.744,9.751Z" fill="#333"/></g></svg>