<svg xmlns="http://www.w3.org/2000/svg" width="18.75" height="18.75" viewBox="0 0 18.75 18.75"><path d="M14.72.47a.75.75,0,0,1,1.061,0l3,3a.75.75,0,0,1,0,1.061l-2.25,2.25h0L9.78,13.53a.75.75,0,0,1-.53.22h-3A.75.75,0,0,1,5.5,13V10a.75.75,0,0,1,.22-.53l6.75-6.75h0ZM17.189,4,16,5.189,14.061,3.25,15.25,2.061ZM7,10.311l6-6L14.939,6.25l-6,6H7ZM1.75,1A1.5,1.5,0,0,0,.25,2.5v15A1.5,1.5,0,0,0,1.75,19h15a1.5,1.5,0,0,0,1.5-1.5V9.25a.75.75,0,0,0-1.5,0V17.5h-15V2.5H10A.75.75,0,0,0,10,1Z" transform="translate(-0.25 -0.25)" fill="#1e1932" fill-rule="evenodd"/></svg>