<svg xmlns="http://www.w3.org/2000/svg" width="32.503" height="38.5" viewBox="0 0 32.503 38.5"><g transform="translate(-7.749 -4.75)"><path d="M37.5,43.25h-27a2.75,2.75,0,0,1-2.75-2.75V7.5A2.75,2.75,0,0,1,10.5,4.75h18a1.25,1.25,0,0,1,.884.366l10.5,10.5a1.25,1.25,0,0,1,.366.884v24a2.75,2.75,0,0,1-2.75,2.75Zm-27-36a.252.252,0,0,0-.177.073.248.248,0,0,0-.073.177v33a.25.25,0,0,0,.25.25h27a.25.25,0,0,0,.25-.25V17.018L27.982,7.25Z" fill="#fab42d"/><path d="M39,17.75H28.5a1.25,1.25,0,0,1-1.25-1.25V6a1.25,1.25,0,1,1,2.5,0v9.25H39a1.25,1.25,0,0,1,0,2.5Z" fill="#fab42d"/><path d="M13.816,37V28.6h3.108a3.663,3.663,0,0,1,1.668.336,2.252,2.252,0,0,1,.984.924,2.825,2.825,0,0,1,.012,2.6,2.34,2.34,0,0,1-.972.936,3.615,3.615,0,0,1-1.692.348H15.352V37Zm1.536-4.5h1.476a1.587,1.587,0,0,0,1.152-.348,1.313,1.313,0,0,0,.36-.972,1.289,1.289,0,0,0-.36-.972,1.553,1.553,0,0,0-1.152-.36H15.352Z" fill="#fab42d"/><path d="M21.105,37V28.6h2.868a4.945,4.945,0,0,1,2.424.528,3.213,3.213,0,0,1,1.416,1.464,4.882,4.882,0,0,1,.468,2.208,4.959,4.959,0,0,1-.468,2.22A3.291,3.291,0,0,1,26.4,36.484,5.04,5.04,0,0,1,23.973,37Zm1.536-1.32H23.9a3.483,3.483,0,0,0,1.668-.336,1.979,1.979,0,0,0,.876-.984,4.706,4.706,0,0,0,0-3.108,1.972,1.972,0,0,0-.876-1,3.382,3.382,0,0,0-1.668-.348h-1.26Z" fill="#fab42d"/><path d="M29.636,37V28.6H35.06v1.236H31.172v2.352h3.144V33.4H31.172V37Z" fill="#fab42d"/></g></svg>