<svg xmlns="http://www.w3.org/2000/svg" width="13.5" height="18.75" viewBox="0 0 13.5 18.75"><g transform="translate(-1102.25 -504.25)"><path d="M13.5,18.25l-6-3.75-6,3.75V1.75A.75.75,0,0,1,2.25,1h10.5a.75.75,0,0,1,.75.75Z" transform="translate(1101.5 504)" fill="#e5e7eb"/><path d="M1.5,19a.75.75,0,0,1-.75-.75V1.75A1.5,1.5,0,0,1,2.25.25h10.5a1.5,1.5,0,0,1,1.5,1.5v16.5a.75.75,0,0,1-1.147.636l-5.6-3.5-5.6,3.5A.75.75,0,0,1,1.5,19Zm6-5.25a.749.749,0,0,1,.4.114L12.75,16.9V1.75H2.25V16.9L7.1,13.864A.749.749,0,0,1,7.5,13.75Z" transform="translate(1101.5 504)" fill="#f5f5f5"/></g></svg>