<svg xmlns="http://www.w3.org/2000/svg" width="16" height="14.769" viewBox="0 0 16 14.769"><g transform="translate(-0.81 -0.705)"><path d="M2.041,3.167H15.58A1.232,1.232,0,0,1,16.81,4.4v9.846a1.232,1.232,0,0,1-1.231,1.231H2.041A1.232,1.232,0,0,1,.81,14.244V4.4A1.232,1.232,0,0,1,2.041,3.167ZM15.58,14.244V4.4H2.04v9.846Z" fill="#777"/><path d="M11.888,4.4a.615.615,0,0,1-.615-.615V2.551a.615.615,0,0,0-.615-.615H6.965a.615.615,0,0,0-.615.615V3.782a.615.615,0,0,1-1.231,0V2.551A1.846,1.846,0,0,1,6.965.705h3.692A1.846,1.846,0,0,1,12.5,2.551V3.782A.615.615,0,0,1,11.888,4.4Z" fill="#777"/><path d="M8.833,10.551H8.785A15.332,15.332,0,0,1,1.118,8.493a.615.615,0,1,1,.616-1.065A14.1,14.1,0,0,0,8.809,9.321a14.1,14.1,0,0,0,7.078-1.894A.615.615,0,0,1,16.5,8.493,15.335,15.335,0,0,1,8.833,10.551Z" fill="#777"/><path d="M9.733,8.09H7.887a.615.615,0,0,1,0-1.231H9.733a.615.615,0,1,1,0,1.231Z" fill="#777"/></g></svg>