<svg xmlns="http://www.w3.org/2000/svg" width="13.115" height="17.885" viewBox="0 0 13.115 17.885"><g transform="translate(-2.891 -0.359)"><path d="M9.449,13.474a6.558,6.558,0,1,1,6.558-6.558A6.565,6.565,0,0,1,9.449,13.474Zm0-11.923a5.365,5.365,0,1,0,5.365,5.365A5.371,5.371,0,0,0,9.449,1.551Z" fill="#5bb949"/><path d="M9.449,11.09a4.173,4.173,0,1,1,4.173-4.173A4.178,4.178,0,0,1,9.449,11.09Zm0-7.154A2.981,2.981,0,1,0,12.43,6.917,2.984,2.984,0,0,0,9.449,3.936Z" fill="#5bb949"/><path d="M13.026,18.244a.6.6,0,0,1-.267-.063L9.449,16.526l-3.31,1.655a.6.6,0,0,1-.863-.533V11.686a.6.6,0,0,1,1.192,0v5l2.714-1.357a.6.6,0,0,1,.533,0l2.715,1.357v-5a.6.6,0,0,1,1.192,0v5.962a.6.6,0,0,1-.6.6Z" fill="#5bb949"/></g></svg>