<svg xmlns="http://www.w3.org/2000/svg" width="16.5" height="20.25" viewBox="0 0 16.5 20.25"><g transform="translate(-3.25 -0.048)"><path d="M14.5,13.548h-6a.75.75,0,0,1,0-1.5h6a.75.75,0,0,1,0,1.5Z" fill="#222"/><path d="M14.5,10.548h-6a.75.75,0,0,1,0-1.5h6a.75.75,0,1,1,0,1.5Z" fill="#222"/><path d="M18.25,20.3H4.75a1.5,1.5,0,0,1-1.5-1.5V3.048a1.5,1.5,0,0,1,1.5-1.5H8.5a.75.75,0,0,1,0,1.5H4.75V18.8h13.5V3.048H14.5a.75.75,0,0,1,0-1.5h3.75a1.5,1.5,0,0,1,1.5,1.5V18.8a1.5,1.5,0,0,1-1.5,1.5Z" fill="#222"/><path d="M15.25,6.048H7.75A.75.75,0,0,1,7,5.3v-.75a4.5,4.5,0,1,1,9,0V5.3A.75.75,0,0,1,15.25,6.048ZM8.5,4.548h6a3,3,0,0,0-6,0Z" fill="#222"/></g></svg>