<svg xmlns="http://www.w3.org/2000/svg" width="25.754" height="23.214" viewBox="0 0 25.754 23.214"><g transform="translate(-1.548 -1.048)"><path d="M3.405,10.333H8.977a.929.929,0,0,1,.929.929V23.333a.929.929,0,0,1-.929.929H3.405A1.857,1.857,0,0,1,1.548,22.4V12.191a1.857,1.857,0,0,1,1.857-1.857Zm4.643,1.857H3.405V22.4H8.048Z" fill="#333"/><path d="M23.123,24.262H8.977a.929.929,0,1,1,0-1.857H23.123a.929.929,0,0,0,.921-.813l1.393-11.143A.929.929,0,0,0,24.516,9.4H17.334a.929.929,0,0,1-.929-.929V5.691a2.788,2.788,0,0,0-2.239-2.732L9.807,11.677a.929.929,0,0,1-1.661-.831l4.643-9.286a.929.929,0,0,1,.831-.513,4.643,4.643,0,0,1,4.643,4.643V7.548h6.253a2.786,2.786,0,0,1,2.764,3.131L25.887,21.822a2.786,2.786,0,0,1-2.764,2.44Z" fill="#333"/></g></svg>