<svg xmlns="http://www.w3.org/2000/svg" width="12.577" height="11.192" viewBox="0 0 12.577 11.192"><g transform="translate(-0.481 -1.096)"><path d="M10.923,12.289a2.135,2.135,0,1,1,2.135-2.135A2.137,2.137,0,0,1,10.923,12.289Zm0-2.769a.635.635,0,1,0,.635.635A.635.635,0,0,0,10.923,9.519Z" fill="#777"/><path d="M9.538,10.9h-6a3.058,3.058,0,0,1,0-6.115H9.077a1.1,1.1,0,1,0,0-2.192H3.538a.75.75,0,1,1,0-1.5H9.077a2.6,2.6,0,0,1,0,5.192H3.538a1.558,1.558,0,0,0,0,3.115h6a.75.75,0,0,1,0,1.5Z" fill="#777"/></g></svg>