<svg xmlns="http://www.w3.org/2000/svg" width="19.233" height="16.833" viewBox="0 0 19.233 16.833"><g transform="translate(-0.383 -0.583)"><path d="M10,.583a.616.616,0,0,1,.29.073l9,4.8a.617.617,0,0,1,0,1.088l-9,4.8a.617.617,0,0,1-.58,0l-9-4.8a.617.617,0,0,1,0-1.088l9-4.8A.616.616,0,0,1,10,.583ZM17.69,6,10,1.9,2.31,6,10,10.1Z" fill="#777"/><path d="M14.5,17.417a.617.617,0,0,1-.617-.617V8.77L9.71,6.544a.617.617,0,1,1,.58-1.088l4.5,2.4a.617.617,0,0,1,.326.544v8.4A.617.617,0,0,1,14.5,17.417Z" fill="#777"/><path d="M10,15.317a8.975,8.975,0,0,1-7.274-3.378,1.221,1.221,0,0,1-.243-.731V7.12a.617.617,0,0,1,1.233,0V11.2A7.733,7.733,0,0,0,10,14.083a7.733,7.733,0,0,0,6.283-2.88V7.12a.617.617,0,0,1,1.233,0v4.089a1.22,1.22,0,0,1-.243.729A8.974,8.974,0,0,1,10,15.317Z" fill="#777"/></g></svg>