<svg xmlns="http://www.w3.org/2000/svg" width="19.184" height="19.184" viewBox="0 0 19.184 19.184"><g transform="translate(-0.619 -0.401)"><path d="M10.211,19.585A9.592,9.592,0,1,1,19.8,9.993,9.6,9.6,0,0,1,10.211,19.585Zm0-18a8.408,8.408,0,1,0,8.408,8.408A8.417,8.417,0,0,0,10.211,1.585Z" transform="translate(0 0)" fill="#d2504b"/><path d="M5.947,11.059a.592.592,0,0,1-.419-1.011l4.737-4.737a.592.592,0,1,1,.837.837L6.366,10.886A.59.59,0,0,1,5.947,11.059Z" transform="translate(1.895 1.895)" fill="#d2504b"/><path d="M10.684,11.059a.59.59,0,0,1-.419-.173L5.529,6.149a.592.592,0,1,1,.837-.837L11.1,10.048a.592.592,0,0,1-.419,1.011Z" transform="translate(1.895 1.895)" fill="#d2504b"/></g></svg>