<svg xmlns="http://www.w3.org/2000/svg" width="14.151" height="15.641" viewBox="0 0 14.151 15.641"><g transform="translate(-4.982 -3.122)"><path d="M6.07,3.122H18.044a1.178,1.178,0,0,1,1.089,1.272v13.1a1.178,1.178,0,0,1-1.089,1.272H6.07a1.178,1.178,0,0,1-1.089-1.272V4.394A1.178,1.178,0,0,1,6.07,3.122ZM18,4.211H6.117a.338.338,0,0,0-.047.183v13.1a.339.339,0,0,0,.047.183H18a.339.339,0,0,0,.047-.183V4.394A.338.338,0,0,0,18,4.211Z" fill="#777"/><path d="M15.595,7.477H8.519a.544.544,0,1,1,0-1.089h7.076a.544.544,0,1,1,0,1.089Z" fill="#777"/><path d="M15.595,9.654H8.519a.544.544,0,1,1,0-1.089h7.076a.544.544,0,1,1,0,1.089Z" fill="#777"/><path d="M15.595,11.831H8.519a.544.544,0,1,1,0-1.089h7.076a.544.544,0,1,1,0,1.089Z" fill="#777"/></g></svg>