<svg xmlns="http://www.w3.org/2000/svg" width="20.709" height="15.75" viewBox="0 0 20.709 15.75"><g transform="translate(-1.25 -2.25)"><path d="M2,18a.75.75,0,0,1-.75-.75V3.75a1.5,1.5,0,0,1,1.5-1.5h5a1.509,1.509,0,0,1,.9.3l2.6,1.95h6.5A1.5,1.5,0,0,1,19.25,6V8.25a.75.75,0,0,1-1.5,0V6h-6.5a1.509,1.509,0,0,1-.9-.3L7.75,3.75h-5v13.5A.75.75,0,0,1,2,18Z" fill="#1e1932"/><path d="M18.5,18H2a.75.75,0,0,1-.712-.987L4.118,8.526A1.5,1.5,0,0,1,5.541,7.5H20.459a1.5,1.5,0,0,1,1.423,1.974l-2.671,8.013A.75.75,0,0,1,18.5,18ZM3.041,16.5H17.959l2.5-7.5H5.541Z" fill="#1e1932"/></g></svg>