<svg xmlns="http://www.w3.org/2000/svg" width="54.591" height="52.37" viewBox="0 0 54.591 52.37"><g transform="translate(-0.818 -0.452)"><path d="M27,28.818a2.182,2.182,0,0,1-2.182-2.182V13.546a2.182,2.182,0,0,1,4.364,0V26.637A2.182,2.182,0,0,1,27,28.818Z" fill="#fab42d"/><path d="M38.335,35.364a2.172,2.172,0,0,1-1.089-.293L25.909,28.526a2.182,2.182,0,0,1,2.182-3.779l11.337,6.545a2.182,2.182,0,0,1-1.093,4.072Z" fill="#fab42d"/><path d="M53.227,21.1H42.318a2.182,2.182,0,1,1,0-4.364h8.727V8.014a2.182,2.182,0,0,1,4.364,0V18.923A2.182,2.182,0,0,1,53.227,21.1Z" fill="#fab42d"/><path d="M26.985,52.821a26.183,26.183,0,1,1,18.529-44.7L54.77,17.38a2.182,2.182,0,0,1-3.086,3.086l-9.257-9.257a21.818,21.818,0,1,0,0,30.856,2.182,2.182,0,1,1,3.086,3.086,26.221,26.221,0,0,1-18.529,7.672Z" fill="#fab42d"/></g></svg>