<svg xmlns="http://www.w3.org/2000/svg" width="15.9" height="15.9" viewBox="0 0 15.9 15.9"><g transform="translate(-0.792 -0.25)"><path d="M8.742,16.15a7.95,7.95,0,1,1,7.95-7.95A7.959,7.959,0,0,1,8.742,16.15Zm0-14.4a6.45,6.45,0,1,0,6.45,6.45A6.457,6.457,0,0,0,8.742,1.75Z" fill="#1e1932"/><path d="M8.288,11.5a.748.748,0,0,1-.53-.22L5.212,8.73a.75.75,0,0,1,0-1.061L7.758,5.124A.75.75,0,0,1,8.818,6.185L6.8,8.2l2.015,2.015a.75.75,0,0,1-.53,1.28Z" fill="#1e1932"/><path d="M11.742,8.95h-6a.75.75,0,0,1,0-1.5h6a.75.75,0,0,1,0,1.5Z" fill="#1e1932"/></g></svg>