<svg xmlns="http://www.w3.org/2000/svg" width="17.62" height="19.12" viewBox="0 0 17.62 19.12"><g transform="translate(-0.69 0)"><path d="M2,1.12H17a1.311,1.311,0,0,1,1.31,1.31v15A1.311,1.311,0,0,1,17,18.74H2A1.311,1.311,0,0,1,.69,17.43v-15A1.311,1.311,0,0,1,2,1.12Zm15,16.5a.19.19,0,0,0,.19-.19v-15A.19.19,0,0,0,17,2.24H2a.19.19,0,0,0-.19.19v15a.19.19,0,0,0,.19.19Z" transform="translate(0 0.38)" fill="#d2504b"/><path d="M10.769,4.12a.56.56,0,0,1-.56-.56v-3a.56.56,0,0,1,1.12,0v3A.56.56,0,0,1,10.769,4.12Z" transform="translate(3.23 0)" fill="#d2504b"/><path d="M4.051,4.12a.56.56,0,0,1-.56-.56v-3a.56.56,0,1,1,1.12,0v3A.56.56,0,0,1,4.051,4.12Z" transform="translate(0.95 0)" fill="#d2504b"/><path d="M17.75,5.6H1.25a.56.56,0,1,1,0-1.12h16.5a.56.56,0,1,1,0,1.12Z" transform="translate(0 1.52)" fill="#d2504b"/><path d="M5.73,12.9a.56.56,0,0,1-.4-.956l4.5-4.5a.56.56,0,1,1,.792.792l-4.5,4.5A.558.558,0,0,1,5.73,12.9Z" transform="translate(1.52 2.47)" fill="#d2504b"/><path d="M10.23,12.9a.558.558,0,0,1-.4-.164l-4.5-4.5a.56.56,0,0,1,.792-.792l4.5,4.5a.56.56,0,0,1-.4.956Z" transform="translate(1.52 2.47)" fill="#d2504b"/></g></svg>