<svg xmlns="http://www.w3.org/2000/svg" width="14.7" height="15.9" viewBox="0 0 14.7 15.9"><g transform="translate(-2.15 -0.05)"><path d="M3.5,1.25h12A1.352,1.352,0,0,1,16.85,2.6v12a1.352,1.352,0,0,1-1.35,1.35H3.5A1.352,1.352,0,0,1,2.15,14.6V2.6A1.352,1.352,0,0,1,3.5,1.25Zm11.85,1.5H3.65v11.7h11.7Z" fill="#777"/><path d="M13.1,3.95a.75.75,0,0,1-.75-.75V.8a.75.75,0,1,1,1.5,0V3.2A.75.75,0,0,1,13.1,3.95Z" fill="#777"/><path d="M5.9,3.95a.75.75,0,0,1-.75-.75V.8a.75.75,0,1,1,1.5,0V3.2A.75.75,0,0,1,5.9,3.95Z" fill="#777"/><path d="M16.1,6.35H2.9a.75.75,0,0,1,0-1.5H16.1a.75.75,0,0,1,0,1.5Z" fill="#777"/></g></svg>