<svg xmlns="http://www.w3.org/2000/svg" width="25.576" height="32.894" viewBox="0 0 25.576 32.894"><g transform="translate(0)"><path d="M21.16,0h1.894V31.816H21.16Z" fill="#fab42d"/><path d="M18.234,32.894V31h7.342v1.894Z" fill="#fab42d"/><path d="M22.722,20.328V.149L0,9.711ZM21.49,1.626V18.788L2.166,9.758Z" fill="#fab42d"/><path d="M15.4,5.534h3.046V8.58H15.4Z" fill="#fab42d"/><path d="M18.444,14.67h3.045v3.045H18.444Z" fill="#fab42d"/><path d="M12.353,8.579H15.4v3.045H12.353Z" fill="#fab42d"/><path d="M6.263,8.579H9.308v3.045H6.263Z" fill="#fab42d"/><path d="M12.352,5.1v.439H11.309Z" fill="#fab42d"/><path d="M12.352,14.885l-.462-.215h.462Z" fill="#fab42d"/><path d="M9.308,11.624h3.045V14.67h-.462L9.308,13.463Z" fill="#fab42d"/><path d="M12.353,14.67H15.4v1.639l-3.045-1.423Z" fill="#fab42d"/><path d="M9.308,8.58v-2.2l2-.842h1.044V8.58Z" fill="#fab42d"/><path d="M4.072,8.58l2.19-.921V8.58Z" fill="#fab42d"/><path d="M12.353,5.534V5.1L15.4,3.814v1.72Z" fill="#fab42d"/><path d="M15.4,11.624h3.046V14.67H15.4Z" fill="#fab42d"/><path d="M3.217,8.939v1.677L1.328,9.735Z" fill="#fab42d"/><path d="M6.263,11.624v.415l-.889-.415Z" fill="#fab42d"/><path d="M18.444,8.579h3.045v3.045H18.444Z" fill="#fab42d"/><path d="M18.444,2.489h3.045V5.534H18.444Z" fill="#fab42d"/></g></svg>