<svg xmlns="http://www.w3.org/2000/svg" width="17.286" height="11.338" viewBox="0 0 17.286 11.338"><path d="M10.678.494a.669.669,0,1,0,.363,1.288Zm1.179,7.861V7.687a.669.669,0,0,0,0,1.338Zm-11.4,2.26a.669.669,0,0,0,1.094.769Zm10.184.769a.669.669,0,0,0,1.094-.77Zm5.765,0a.669.669,0,0,0,1.095-.769ZM9.1,4.678A3.008,3.008,0,0,1,6.092,7.687V9.024a4.346,4.346,0,0,0,4.346-4.346ZM6.092,7.687A3.008,3.008,0,0,1,3.084,4.678H1.746A4.346,4.346,0,0,0,6.092,9.024ZM3.084,4.678A3.008,3.008,0,0,1,6.092,1.67V.332A4.346,4.346,0,0,0,1.746,4.678ZM6.092,1.67A3.008,3.008,0,0,1,9.1,4.678h1.338A4.346,4.346,0,0,0,6.092.332Zm4.949.112A3.008,3.008,0,0,1,12.313,1.7l.2-1.322a4.346,4.346,0,0,0-1.839.113ZM12.313,1.7A3.008,3.008,0,0,1,13.5,2.16l.733-1.119a4.347,4.347,0,0,0-1.72-.659ZM13.5,2.16a3.009,3.009,0,0,1,.895.908l1.13-.716A4.347,4.347,0,0,0,14.236,1.04Zm.895.908a3.009,3.009,0,0,1,.438,1.2l1.325-.183a4.349,4.349,0,0,0-.633-1.73Zm.438,1.2a3.008,3.008,0,0,1-.1,1.271l1.282.382a4.347,4.347,0,0,0,.14-1.837Zm-.1,1.271a3.009,3.009,0,0,1-.615,1.117l1.009.879a4.348,4.348,0,0,0,.888-1.614Zm-.615,1.117a3.01,3.01,0,0,1-1.022.762l.554,1.218a4.346,4.346,0,0,0,1.477-1.1ZM13.1,7.416a3.009,3.009,0,0,1-1.246.27V9.024a4.346,4.346,0,0,0,1.8-.391ZM1.547,11.385A5.556,5.556,0,0,1,3.531,9.65L2.915,8.462A6.893,6.893,0,0,0,.453,10.615ZM3.531,9.65a5.556,5.556,0,0,1,2.561-.625V7.687a6.894,6.894,0,0,0-3.177.776Zm2.561-.625a5.554,5.554,0,0,1,2.56.625l.617-1.187a6.892,6.892,0,0,0-3.177-.776Zm2.56.625a5.555,5.555,0,0,1,1.984,1.735l1.094-.77A6.893,6.893,0,0,0,9.269,8.462Zm3.205-.625a5.547,5.547,0,0,1,2.561.624l.617-1.187a6.885,6.885,0,0,0-3.178-.775Zm2.561.624A5.547,5.547,0,0,1,16.4,11.384l1.095-.769a6.884,6.884,0,0,0-2.462-2.154Z" transform="translate(-0.331 -0.331)" fill="#777"/></svg>