<svg xmlns="http://www.w3.org/2000/svg" width="13.5" height="19.5" viewBox="0 0 13.5 19.5"><g transform="translate(-0.25 -0.25)"><path d="M7,10.75a.749.749,0,0,1-.45-.15L.85,6.325a1.5,1.5,0,0,1-.6-1.2V1.75A1.5,1.5,0,0,1,1.75.25h10.5a1.5,1.5,0,0,1,1.5,1.5V5.091a1.5,1.5,0,0,1-.6,1.2l-5.7,4.31A.749.749,0,0,1,7,10.75Zm-5.25-9V5.125L7,9.061l5.252-3.97V1.75Z" fill="#1e1932"/><path d="M7,9.25a.749.749,0,0,1,.452.152l5.7,4.31a1.5,1.5,0,0,1,.6,1.2V18.25a1.5,1.5,0,0,1-1.5,1.5H1.75a1.5,1.5,0,0,1-1.5-1.5V14.875a1.5,1.5,0,0,1,.6-1.2L6.55,9.4A.749.749,0,0,1,7,9.25Zm5.25,9V14.909L7,10.939,1.75,14.875V18.25Z" fill="#1e1932"/><path d="M11.962,7H2A.75.75,0,0,1,2,5.5h9.962a.75.75,0,1,1,0,1.5Z" fill="#1e1932"/><path d="M7,14.5a.75.75,0,0,1-.75-.75V10a.75.75,0,0,1,1.5,0v3.75A.75.75,0,0,1,7,14.5Z" fill="#1e1932"/></g></svg>