<svg xmlns="http://www.w3.org/2000/svg" width="16.5" height="19.5" viewBox="0 0 16.5 19.5"><g transform="translate(-4 -0.5)"><path d="M10.75,11a.75.75,0,0,1-.75-.75v-9a.75.75,0,0,1,1.5,0v7.5L13.3,7.4a.75.75,0,0,1,.9,0L16,8.75V1.25a.75.75,0,0,1,1.5,0v9a.75.75,0,0,1-1.2.6L13.749,8.938,11.2,10.85A.75.75,0,0,1,10.75,11Z" fill="#333"/><path d="M4.75,19.25A.75.75,0,0,1,4,18.5V3.5a3,3,0,0,1,3-3H19.75a.75.75,0,0,1,.75.75v15a.75.75,0,0,1-.75.75H7a1.5,1.5,0,0,0-1.5,1.5A.75.75,0,0,1,4.75,19.25ZM7,2A1.5,1.5,0,0,0,5.5,3.5V15.9A2.982,2.982,0,0,1,7,15.5H19V2Z" fill="#333"/><path d="M18.25,20H4.75A.75.75,0,0,1,4,19.25V18.5a.75.75,0,0,1,1.5,0H18.25a.75.75,0,0,1,0,1.5Z" fill="#333"/></g></svg>