<svg xmlns="http://www.w3.org/2000/svg" width="21" height="19.5" viewBox="0 0 21 19.5"><g transform="translate(-0.25 -0.25)"><path d="M20.5,19.75H1a.75.75,0,0,1,0-1.5H20.5a.75.75,0,0,1,0,1.5Z" fill="#1e1932"/><path d="M17.5,19.75a.75.75,0,0,1-.75-.75V1.75h-12V19a.75.75,0,0,1-1.5,0V1.75A1.5,1.5,0,0,1,4.75.25h12a1.5,1.5,0,0,1,1.5,1.5V19A.75.75,0,0,1,17.5,19.75Z" fill="#1e1932"/><path d="M13.75,10a.375.375,0,1,1-.375-.375A.375.375,0,0,1,13.75,10Z" fill="#1e1932"/><path d="M13.375,8.875A1.125,1.125,0,1,1,12.25,10,1.126,1.126,0,0,1,13.375,8.875Z" fill="#1e1932"/></g></svg>