<svg xmlns="http://www.w3.org/2000/svg" width="21" height="18.75" viewBox="0 0 21 18.75"><g transform="translate(-1.5 -1.5)"><path d="M21,20.25H3a1.5,1.5,0,0,1-1.5-1.5v-6A1.5,1.5,0,0,1,3,11.25H7.5a.75.75,0,0,1,0,1.5H3v6H21v-6H16.5a.75.75,0,0,1,0-1.5H21a1.5,1.5,0,0,1,1.5,1.5v6a1.5,1.5,0,0,1-1.5,1.5Z" fill="#1d2026"/><path d="M12,12.75a.75.75,0,0,1-.75-.75V2.25a.75.75,0,0,1,1.5,0V12A.75.75,0,0,1,12,12.75Z" fill="#1d2026"/><path d="M12,12.75a.748.748,0,0,1-.53-.22l-4.5-4.5A.75.75,0,0,1,8.03,6.97L12,10.939l3.97-3.97A.75.75,0,0,1,17.03,8.03l-4.5,4.5A.748.748,0,0,1,12,12.75Z" fill="#1d2026"/><path d="M17.625,16.875A1.125,1.125,0,1,0,16.5,15.75,1.125,1.125,0,0,0,17.625,16.875Z" fill="#1d2026"/></g></svg>