<svg xmlns="http://www.w3.org/2000/svg" width="15.9" height="13.5" viewBox="0 0 15.9 13.5"><g transform="translate(-0.25 -0.25)"><path d="M6.4,11.35A3.15,3.15,0,1,1,9.55,8.2,3.154,3.154,0,0,1,6.4,11.35Zm0-4.8A1.65,1.65,0,1,0,8.05,8.2,1.652,1.652,0,0,0,6.4,6.55Z" fill="#777"/><path d="M14.8,13.75H10.2a.75.75,0,0,1-.678-.428,3.452,3.452,0,0,0-6.237,0,.75.75,0,0,1-.677.428h-1A1.35,1.35,0,0,1,.25,12.4V1.6A1.35,1.35,0,0,1,1.6.25H14.8A1.35,1.35,0,0,1,16.15,1.6V12.4a1.35,1.35,0,0,1-1.35,1.35Zm-4.156-1.5H14.65V1.75H1.75v10.5h.406a4.952,4.952,0,0,1,8.487,0Z" fill="#777"/><path d="M13,11.35H11.8a.75.75,0,0,1,0-1.5h.45V4.15H4.15V4.6a.75.75,0,1,1-1.5,0V3.4a.75.75,0,0,1,.75-.75H13a.75.75,0,0,1,.75.75v7.2A.75.75,0,0,1,13,11.35Z" fill="#777"/></g></svg>