<svg xmlns="http://www.w3.org/2000/svg" width="16.205" height="14.945" viewBox="0 0 16.205 14.945"><g transform="translate(-0.611 -0.585)"><path d="M15.016,13.009H2.411a1.8,1.8,0,0,1-1.8-1.8V2.385a1.8,1.8,0,0,1,1.8-1.8h12.6a1.8,1.8,0,0,1,1.8,1.8v8.823A1.8,1.8,0,0,1,15.016,13.009ZM2.411,1.665a.721.721,0,0,0-.72.72v8.823a.721.721,0,0,0,.72.72h12.6a.721.721,0,0,0,.72-.72V2.385a.721.721,0,0,0-.72-.72Z" fill="#777"/><path d="M11.234,15.53H6.192a.54.54,0,0,1,0-1.08h5.042a.54.54,0,1,1,0,1.08Z" fill="#777"/><path d="M7.453,9.858a.54.54,0,0,1-.54-.54V4.276a.54.54,0,0,1,.84-.449l3.781,2.521a.54.54,0,0,1,0,.9L7.752,9.767A.54.54,0,0,1,7.453,9.858Zm.54-4.573V8.308L10.26,6.8Z" fill="#777"/></g></svg>