<svg xmlns="http://www.w3.org/2000/svg" width="16.5" height="20.25" viewBox="0 0 16.5 20.25"><g transform="translate(-0.25 -0.25)"><path d="M11.5,11.5h-6a.75.75,0,0,1,0-1.5h6a.75.75,0,0,1,0,1.5Z" fill="#1e1932"/><path d="M11.5,14.5h-6a.75.75,0,0,1,0-1.5h6a.75.75,0,0,1,0,1.5Z" fill="#1e1932"/><path d="M1.75,1.75h13.5a1.5,1.5,0,0,1,1.5,1.5V17.5a3,3,0,0,1-3,3H3.25a3,3,0,0,1-3-3V3.25a1.5,1.5,0,0,1,1.5-1.5ZM13.75,19a1.5,1.5,0,0,0,1.5-1.5V3.25H1.75V17.5A1.5,1.5,0,0,0,3.25,19Z" fill="#1e1932"/><path d="M4,4.75A.75.75,0,0,1,3.25,4V1a.75.75,0,0,1,1.5,0V4A.75.75,0,0,1,4,4.75Z" fill="#1e1932"/><path d="M8.5,4.75A.75.75,0,0,1,7.75,4V1a.75.75,0,0,1,1.5,0V4A.75.75,0,0,1,8.5,4.75Z" fill="#1e1932"/><path d="M13,4.75A.75.75,0,0,1,12.25,4V1a.75.75,0,0,1,1.5,0V4A.75.75,0,0,1,13,4.75Z" fill="#1e1932"/></g></svg>