<svg xmlns="http://www.w3.org/2000/svg" width="36.725" height="31.075" viewBox="0 0 36.725 31.075"><g transform="translate(-0.587 -0.588)"><path d="M3.412.587H34.487a2.828,2.828,0,0,1,2.825,2.825V28.837a2.828,2.828,0,0,1-2.825,2.825H3.412A2.828,2.828,0,0,1,.587,28.837V3.413A2.828,2.828,0,0,1,3.412.587Zm31.075,28.25V3.413H3.411l0,25.425Z" fill="#5bb949"/><path d="M35.9,27.425a1.408,1.408,0,0,1-1-.414l-7.476-7.476-3.652,3.652a2.825,2.825,0,0,1-4,0l-7.89-7.89L3,24.186a1.413,1.413,0,0,1-2-2L9.89,13.3a2.825,2.825,0,0,1,3.995,0l7.89,7.89,3.652-3.652a2.825,2.825,0,0,1,3.995,0L36.9,25.014a1.412,1.412,0,0,1-1,2.411Z" fill="#5bb949"/><path d="M23.894,13.3a2.119,2.119,0,1,1,2.119-2.119A2.121,2.121,0,0,1,23.894,13.3Z" fill="#5bb949"/></g></svg>