<svg xmlns="http://www.w3.org/2000/svg" width="26.02" height="30.84" viewBox="0 0 26.02 30.84"><path d="M17.627,5.572a12.774,12.774,0,0,1,1.736.642l1.006-1.363a.61.61,0,0,1,.852-.129l1.228.905a.611.611,0,0,1,.129.853L21.74,7.616A13.008,13.008,0,1,1,10.354,5.572V1.851A1.619,1.619,0,0,1,11.969.236h4.042a1.619,1.619,0,0,1,1.615,1.615Zm-2.643,10.79a1.972,1.972,0,1,1-1.987,0V12.356a.441.441,0,0,1,.441-.441h1.1a.441.441,0,0,1,.441.441ZM13.99,9.828a8.239,8.239,0,1,0,8.239,8.239A8.239,8.239,0,0,0,13.99,9.828Z" transform="translate(-0.98 -0.236)" fill="#fab42d" fill-rule="evenodd"/></svg>