<svg xmlns="http://www.w3.org/2000/svg" width="16.832" height="14.243" viewBox="0 0 16.832 14.243"><g transform="translate(-3.504 -3.936)"><path d="M4.8,3.936H19.041a1.3,1.3,0,0,1,1.295,1.295V16.884a1.3,1.3,0,0,1-1.295,1.295H4.8A1.3,1.3,0,0,1,3.5,16.884V5.231A1.3,1.3,0,0,1,4.8,3.936Zm0,12.948H19.041V5.231H4.8Z" fill="#777"/><path d="M19.688,16.236a.645.645,0,0,1-.458-.19L15.8,12.62,14.13,14.294a1.295,1.295,0,0,1-1.831,0L8.683,10.678,4.609,14.752a.647.647,0,0,1-.916-.916L7.767,9.762a1.288,1.288,0,0,1,.42-.281,1.3,1.3,0,0,1,.991,0,1.287,1.287,0,0,1,.42.28l3.616,3.616L14.888,11.7a1.3,1.3,0,0,1,1.831,0l3.427,3.427a.647.647,0,0,1-.458,1.105Z" fill="#777"/><path d="M14.185,7.82a.971.971,0,1,1-.971.971A.972.972,0,0,1,14.185,7.82Z" fill="#777"/></g></svg>