<svg xmlns="http://www.w3.org/2000/svg" width="22.5" height="18" viewBox="0 0 22.5 18"><g transform="translate(-0.25 -0.25)"><path d="M19,18.25A.748.748,0,0,1,18.445,18l-15-16.5A.75.75,0,0,1,4.555.5l15,16.5A.75.75,0,0,1,19,18.25Z" fill="#777"/><path d="M11.505,13.75q-.11,0-.22-.005A4.5,4.5,0,0,1,8.473,5.92.75.75,0,0,1,9.482,7.03a3,3,0,0,0,4.036,4.44.75.75,0,1,1,1.009,1.11A4.467,4.467,0,0,1,11.505,13.75Z" fill="#777"/><path d="M11.587,16.75H11.5a11.932,11.932,0,0,1-8.589-3.594,13.261,13.261,0,0,1-2.593-3.6.75.75,0,0,1,0-.609A13.4,13.4,0,0,1,6.1,3.012.75.75,0,1,1,6.776,4.35a12.023,12.023,0,0,0-4.937,4.9,12.51,12.51,0,0,0,2.167,2.883A10.323,10.323,0,0,0,11.5,15.249h.087a10.361,10.361,0,0,0,4.638-1.1.75.75,0,1,1,.674,1.34A11.87,11.87,0,0,1,11.587,16.75Z" fill="#777"/><path d="M19.057,13.853a.75.75,0,0,1-.5-1.309,12.527,12.527,0,0,0,2.6-3.295,12.513,12.513,0,0,0-2.167-2.883A10.321,10.321,0,0,0,11.5,3.249,11.033,11.033,0,0,0,9.683,3.4a.75.75,0,1,1-.245-1.48A12.537,12.537,0,0,1,11.5,1.749a11.93,11.93,0,0,1,8.592,3.6,13.264,13.264,0,0,1,2.593,3.6.75.75,0,0,1,0,.609,13.442,13.442,0,0,1-3.128,4.107A.747.747,0,0,1,19.057,13.853Z" fill="#777"/><path d="M15.232,9.647a.75.75,0,0,1-.746-.679A3,3,0,0,0,12.064,6.3a.75.75,0,1,1,.283-1.473,4.5,4.5,0,0,1,3.633,4,.75.75,0,0,1-.676.817Q15.268,9.647,15.232,9.647Z" fill="#777"/></g></svg>