<svg xmlns="http://www.w3.org/2000/svg" width="19.5" height="16.5" viewBox="0 0 19.5 16.5"><g transform="translate(-0.25 -0.548)"><path d="M19,17.048H1a.75.75,0,0,1-.75-.75V1.3a.75.75,0,0,1,1.5,0v14.25H19a.75.75,0,1,1,0,1.5Z" fill="#333"/><path d="M1,14.048a.75.75,0,0,1-.53-1.28l6-6a.75.75,0,0,1,1.061,0L10,9.237l6.97-6.97a.75.75,0,1,1,1.061,1.061l-7.5,7.5a.75.75,0,0,1-.53.22h0a.75.75,0,0,1-.53-.22L7,8.358l-5.47,5.47A.748.748,0,0,1,1,14.048Z" fill="#333"/><path d="M17.5,7.3a.75.75,0,0,1-.75-.75v-3h-3a.75.75,0,0,1,0-1.5H17.5a.75.75,0,0,1,.75.75v3.75A.75.75,0,0,1,17.5,7.3Z" fill="#333"/></g></svg>