<svg xmlns="http://www.w3.org/2000/svg" width="11" height="11.909" viewBox="0 0 11 11.909"><g transform="translate(-2.5 -2.773)"><path d="M12.5,7.591h-3a.5.5,0,0,1-.5-.5V3.818a.5.5,0,0,1,1,0V6.591h2.5a.5.5,0,0,1,0,1Z" fill="#777"/><path d="M9.5,7.591a.5.5,0,0,1-.368-.838l3.5-3.818a.5.5,0,1,1,.737.676l-3.5,3.818A.5.5,0,0,1,9.5,7.591Z" fill="#777"/><path d="M6.5,14.136a.5.5,0,0,1-.5-.5V10.863H3.5a.5.5,0,0,1,0-1h3a.5.5,0,0,1,.5.5v3.273A.5.5,0,0,1,6.5,14.136Z" fill="#777"/><path d="M3,14.682a.5.5,0,0,1-.368-.838l3.5-3.818a.5.5,0,1,1,.737.676l-3.5,3.818A.5.5,0,0,1,3,14.682Z" fill="#777"/></g></svg>