<svg xmlns="http://www.w3.org/2000/svg" width="12.24" height="12.24" viewBox="0 0 12.24 12.24"><path d="M9.3.176a.6.6,0,0,1,.849,0l1.92,1.92a.6.6,0,0,1,0,.849l-1.44,1.44h0L6.3,8.7a.6.6,0,0,1-.424.176H3.96a.6.6,0,0,1-.6-.6V6.36a.6.6,0,0,1,.176-.424l4.32-4.32Zm1.5,2.344-.592.591L9.129,2.04l.591-.591ZM4.56,6.609l3.72-3.72L9.351,3.96,5.631,7.68H4.56ZM6.36,1.68H1.2v9.36h9.36V5.88a.6.6,0,1,1,1.2,0v5.28a1.08,1.08,0,0,1-1.08,1.08H1.08A1.08,1.08,0,0,1,0,11.16V1.56A1.08,1.08,0,0,1,1.08.48H6.36a.6.6,0,0,1,0,1.2Z" fill="#777" fill-rule="evenodd"/></svg>