<svg xmlns="http://www.w3.org/2000/svg" width="13.423" height="15.808" viewBox="0 0 13.423 15.808"><g transform="translate(-0.737 -0.045)"><path d="M11.026,8.7a.75.75,0,0,1-.45-.15L8.641,7.1,6.706,8.549a.75.75,0,0,1-1.2-.6V.795a.75.75,0,1,1,1.5,0V6.449L8.19,5.56a.75.75,0,0,1,.9,0l1.185.889V.795a.75.75,0,1,1,1.5,0V7.949a.75.75,0,0,1-.75.75Z" fill="#777"/><path d="M1.487,15.257a.75.75,0,0,1-.75-.75V2.583A2.538,2.538,0,0,1,3.276.045H13.41a.75.75,0,0,1,.75.75V12.718a.75.75,0,0,1-.75.75H3.276a1.038,1.038,0,0,0-1.038,1.038A.75.75,0,0,1,1.487,15.257ZM3.276,1.545A1.038,1.038,0,0,0,2.237,2.583v9.605a2.532,2.532,0,0,1,1.038-.221H12.66V1.545Z" fill="#777"/><path d="M12.218,15.852H1.487a.75.75,0,0,1-.75-.75v-.6a.75.75,0,0,1,1.484-.154h10a.75.75,0,0,1,0,1.5Z" fill="#777"/></g></svg>