<svg xmlns="http://www.w3.org/2000/svg" width="35.357" height="32.607" viewBox="0 0 35.357 32.607"><g transform="translate(-5.821 -7.821)"><path d="M37.25,34.929H9.75A3.933,3.933,0,0,1,5.821,31V11.75A3.933,3.933,0,0,1,9.75,7.821h27.5a3.933,3.933,0,0,1,3.929,3.929V31A3.933,3.933,0,0,1,37.25,34.929ZM9.75,10.179A1.573,1.573,0,0,0,8.178,11.75V31A1.573,1.573,0,0,0,9.75,32.571h27.5A1.573,1.573,0,0,0,38.821,31V11.75a1.573,1.573,0,0,0-1.571-1.571Z" fill="#d2504b"/><path d="M29,40.429H18a1.179,1.179,0,0,1,0-2.357H29a1.179,1.179,0,0,1,0,2.357Z" fill="#d2504b"/><path d="M20.75,14.7a1.178,1.178,0,0,1,.654.2l8.25,5.5a1.179,1.179,0,0,1,0,1.961l-8.25,5.5a1.179,1.179,0,0,1-1.832-.981v-11A1.179,1.179,0,0,1,20.75,14.7Zm6.125,6.679-4.947-3.3v6.6Z" fill="#d2504b"/></g></svg>