<svg xmlns="http://www.w3.org/2000/svg" width="19.5" height="19.5" viewBox="0 0 19.5 19.5"><path d="M5.759.114A1.5,1.5,0,0,1,6.333,0h6.835a1.5,1.5,0,0,1,1.061.439l4.833,4.833A1.5,1.5,0,0,1,19.5,6.333v6.835a1.5,1.5,0,0,1-.439,1.061l-4.833,4.833a1.5,1.5,0,0,1-1.061.439H6.333a1.5,1.5,0,0,1-1.061-.439L.439,14.228A1.5,1.5,0,0,1,0,13.167V6.333A1.5,1.5,0,0,1,.439,5.272L5.272.439A1.5,1.5,0,0,1,5.759.114ZM13.167,1.5H6.333L1.5,6.333v6.835L6.333,18h6.835L18,13.167V6.333ZM9.75,4.5a.75.75,0,0,1,.75.75V10.5a.75.75,0,0,1-1.5,0V5.25A.75.75,0,0,1,9.75,4.5Zm1.125,9.375A1.125,1.125,0,1,1,9.75,12.75,1.125,1.125,0,0,1,10.875,13.875Z" fill="#5bb949" fill-rule="evenodd"/></svg>