<svg xmlns="http://www.w3.org/2000/svg" width="12.577" height="11.654" viewBox="0 0 12.577 11.654"><g transform="translate(-0.481 -0.481)"><path d="M11.385,10.288H2.154A1.675,1.675,0,0,1,.481,8.615V2.154A1.675,1.675,0,0,1,2.154.481h9.231a1.675,1.675,0,0,1,1.673,1.673V8.615A1.675,1.675,0,0,1,11.385,10.288ZM2.154,1.981a.173.173,0,0,0-.173.173V8.615a.173.173,0,0,0,.173.173h9.231a.173.173,0,0,0,.173-.173V2.154a.173.173,0,0,0-.173-.173Z" fill="#777"/><path d="M8.615,12.135H4.923a.75.75,0,0,1,0-1.5H8.615a.75.75,0,0,1,0,1.5Z" fill="#777"/><path d="M5.846,7.981a.75.75,0,0,1-.75-.75V3.538a.75.75,0,0,1,1.166-.624L9.031,4.761a.75.75,0,0,1,0,1.248L6.262,7.855A.75.75,0,0,1,5.846,7.981ZM6.6,4.94v.89l.667-.445Z" fill="#777"/></g></svg>