<svg xmlns="http://www.w3.org/2000/svg" width="19.5" height="17.1" viewBox="0 0 19.5 17.1"><g transform="translate(-0.25 -0.45)"><path d="M14.846,8.017H7.923a.75.75,0,0,1,0-1.5h6.923a.75.75,0,0,1,0,1.5Z" fill="#777"/><path d="M14.846,11.483H7.923a.75.75,0,0,1,0-1.5h6.923a.75.75,0,0,1,0,1.5Z" fill="#777"/><path d="M17.615,17.55H2.385a.75.75,0,1,1,0-1.5.523.523,0,0,0,.393-.226,1.23,1.23,0,0,0,.242-.758v-13A1.733,1.733,0,0,1,3.386.986,1.38,1.38,0,0,1,4.461.45H18.308a1.38,1.38,0,0,1,1.076.536,1.733,1.733,0,0,1,.367,1.081v13a2.715,2.715,0,0,1-.569,1.694A2.014,2.014,0,0,1,17.615,17.55ZM4.347,16.05H17.615a.523.523,0,0,0,.393-.226,1.23,1.23,0,0,0,.241-.757v-13a.3.3,0,0,0-.023-.117H4.542a.294.294,0,0,0-.023.117v13A2.852,2.852,0,0,1,4.347,16.05Z" fill="#777"/><path d="M2.385,17.55A2.014,2.014,0,0,1,.82,16.76a2.715,2.715,0,0,1-.57-1.694V4.667a.75.75,0,0,1,1.5,0v10.4a1.23,1.23,0,0,0,.242.758.523.523,0,0,0,.393.226.75.75,0,0,1,0,1.5Z" fill="#777"/></g></svg>