<svg xmlns="http://www.w3.org/2000/svg" width="114.222" height="19.292" viewBox="0 0 114.222 19.292"><path d="M23.69,19.057a.482.482,0,0,0,.338.133h9.941c3.5,0,6.048-2.367,6.048-5.354,0-2.96-2.521-4.871-5.713-5.221L29.067,8.05c-1.792-.188-2.968-1.158-2.968-2.5a2.694,2.694,0,0,1,2.968-2.5h8.68a.482.482,0,0,0,.476-.458V.812a.464.464,0,0,0-.476-.458h-8.68c-3.5,0-6.048,2.369-6.048,5.221,0,2.879,2.521,4.763,5.712,5.113l5.238.565c1.791.187,2.967,1.181,2.967,2.635a2.707,2.707,0,0,1-2.967,2.61H24.027a.482.482,0,0,0-.476.458v1.776A.445.445,0,0,0,23.69,19.057ZM20.5,10.015v8.743a.452.452,0,0,1-.447.43H17.865a.451.451,0,0,1-.318-.124.415.415,0,0,1-.129-.306V16.444a9.382,9.382,0,0,1-7.225,3.2C4.508,19.646,0,15.367,0,10.013S4.508.38,10.25.38,20.5,4.661,20.5,10.015Zm-3.08,0a7.058,7.058,0,0,0-7.17-6.942,7.056,7.056,0,0,0-7.169,6.942,7.056,7.056,0,0,0,7.169,6.942A7.056,7.056,0,0,0,17.417,10.015ZM57.433.357a.447.447,0,0,1,.476.458V2.59a.463.463,0,0,1-.476.458H50.852V18.733a.447.447,0,0,1-.475.457H48.248a.466.466,0,0,1-.343-.128.429.429,0,0,1-.133-.329V3.048H41.19a.454.454,0,0,1-.475-.485V.814A.447.447,0,0,1,41.19.357ZM68.439,3.073a7.057,7.057,0,0,1,7.169,6.942,7.173,7.173,0,0,1-14.339,0A7.056,7.056,0,0,1,68.439,3.073Zm10.248,6.942v8.743a.452.452,0,0,1-.446.43H76.058a.45.45,0,0,1-.319-.124.413.413,0,0,1-.129-.306V16.444a9.382,9.382,0,0,1-7.225,3.2c-5.684,0-10.193-4.279-10.193-9.632S62.7.38,68.443.38s10.245,4.281,10.245,9.635ZM93.164,2.643V.814a.47.47,0,0,0-.5-.458,10.63,10.63,0,0,0-7.252,2.718V.814a.464.464,0,0,0-.476-.458H82.8a.447.447,0,0,0-.476.458V18.733a.429.429,0,0,0,.133.33.467.467,0,0,0,.343.128h2.128a.483.483,0,0,0,.337-.133.447.447,0,0,0,.139-.324V9.02c0-3.417,2.659-5.678,7.308-5.946A.451.451,0,0,0,93.164,2.643Zm17.979,7.372a7.173,7.173,0,0,0-14.339,0,7.173,7.173,0,0,0,14.339,0Zm3.079,8.743V10.015c0-5.354-4.5-9.635-10.244-9.635S93.727,4.659,93.727,10.013s4.508,9.632,10.192,9.632a9.383,9.383,0,0,0,7.225-3.2v2.314a.412.412,0,0,0,.129.306.449.449,0,0,0,.318.124h2.184A.452.452,0,0,0,114.222,18.758Z" transform="translate(0 -0.354)" fill="#f5f5f5" fill-rule="evenodd"/></svg>