<svg xmlns="http://www.w3.org/2000/svg" width="21" height="14.25" viewBox="0 0 21 14.25"><g transform="translate(-0.25 -0.25)"><path d="M19.75,14.5h-18A1.5,1.5,0,0,1,.25,13V10.856A10.573,10.573,0,0,1,10.713.25h.037a10.5,10.5,0,0,1,10.5,10.5V13a1.5,1.5,0,0,1-1.5,1.5Zm-9-12.75h-.032A9.07,9.07,0,0,0,1.75,10.856V13h18V10.75a9,9,0,0,0-9-9Z" fill="#1e1932"/><path d="M10.75,4.75A.75.75,0,0,1,10,4V1a.75.75,0,0,1,1.5,0V4A.75.75,0,0,1,10.75,4.75Z" fill="#1e1932"/><path d="M4.231,9.753a.751.751,0,0,1-.195-.026l-2.9-.776A.75.75,0,1,1,1.526,7.5l2.9.776a.75.75,0,0,1-.194,1.475Z" fill="#1e1932"/><path d="M17.27,9.753a.75.75,0,0,1-.194-1.475l2.9-.776a.75.75,0,1,1,.388,1.449l-2.9.776A.751.751,0,0,1,17.27,9.753Z" fill="#1e1932"/><path d="M8.447,14.5a.75.75,0,0,1-.594-1.207l6.411-8.355a.75.75,0,1,1,1.19.913L9.043,14.206A.749.749,0,0,1,8.447,14.5Z" fill="#1e1932"/></g></svg>