<svg xmlns="http://www.w3.org/2000/svg" width="17.605" height="20.854" viewBox="0 0 17.605 20.854"><g transform="translate(-4.198 -2.573)"><path d="M20.313,23.427H5.687a1.49,1.49,0,0,1-1.49-1.49V4.063a1.49,1.49,0,0,1,1.49-1.49h9.751a.677.677,0,0,1,.479.2L21.6,8.459a.677.677,0,0,1,.2.479v13a1.49,1.49,0,0,1-1.49,1.49ZM5.687,3.927a.135.135,0,0,0-.135.135V21.938a.136.136,0,0,0,.04.1.135.135,0,0,0,.1.04H20.313a.135.135,0,0,0,.052-.01.136.136,0,0,0,.083-.125V9.218L15.158,3.927Z" fill="#fab42d"/><path d="M21.126,9.615H15.438a.677.677,0,0,1-.677-.677V3.25a.677.677,0,0,1,1.354,0V8.26h5.011a.677.677,0,0,1,0,1.354Z" fill="#fab42d"/><path d="M7.484,20.042v-4.55H9.168a1.985,1.985,0,0,1,.9.182,1.22,1.22,0,0,1,.533.5,1.53,1.53,0,0,1,.007,1.41,1.268,1.268,0,0,1-.526.507,1.958,1.958,0,0,1-.917.188H8.316v1.762ZM8.316,17.6h.8a.86.86,0,0,0,.624-.188.711.711,0,0,0,.2-.527.7.7,0,0,0-.2-.527.841.841,0,0,0-.624-.195h-.8Z" fill="#fab42d"/><path d="M11.433,20.042v-4.55h1.554a2.678,2.678,0,0,1,1.313.286,1.74,1.74,0,0,1,.767.793,2.645,2.645,0,0,1,.253,1.2,2.686,2.686,0,0,1-.253,1.2,1.782,1.782,0,0,1-.767.793,2.731,2.731,0,0,1-1.313.28Zm.832-.715h.682a1.887,1.887,0,0,0,.9-.182,1.072,1.072,0,0,0,.474-.533,2.549,2.549,0,0,0,0-1.684,1.068,1.068,0,0,0-.474-.539,1.832,1.832,0,0,0-.9-.189h-.682Z" fill="#fab42d"/><path d="M16.054,20.042v-4.55h2.938v.669H16.886v1.274h1.7v.656h-1.7v1.95Z" fill="#fab42d"/></g></svg>