<svg xmlns="http://www.w3.org/2000/svg" width="18" height="18" viewBox="0 0 18 18"><g transform="translate(-0.75 -0.5)"><path d="M2.25.5h15A1.5,1.5,0,0,1,18.75,2V17a1.5,1.5,0,0,1-1.5,1.5h-15A1.5,1.5,0,0,1,.75,17V2A1.5,1.5,0,0,1,2.25.5Zm15,16.5V2h-15V17Z" fill="#777"/><path d="M1.5,14.75a.75.75,0,0,1-.53-1.28l3.22-3.22a1.5,1.5,0,0,1,2.121,0l1.939,1.94L12.439,8a1.5,1.5,0,0,1,2.121,0l3.97,3.97A.75.75,0,0,1,17.47,13.03L13.5,9.061,9.311,13.25a1.5,1.5,0,0,1-2.121,0L5.25,11.311,2.03,14.53A.748.748,0,0,1,1.5,14.75Z" fill="#777"/><path d="M7.125,7.25A1.125,1.125,0,1,0,6,6.125,1.125,1.125,0,0,0,7.125,7.25Z" fill="#777"/></g></svg>