<svg xmlns="http://www.w3.org/2000/svg" width="32.503" height="38.5" viewBox="0 0 32.503 38.5"><g transform="translate(-7.749 -4.75)"><path d="M37.5,43.25h-27a2.75,2.75,0,0,1-2.75-2.75V7.5A2.75,2.75,0,0,1,10.5,4.75h18a1.25,1.25,0,0,1,.884.366l10.5,10.5a1.25,1.25,0,0,1,.366.884v24a2.75,2.75,0,0,1-2.75,2.75Zm-27-36a.252.252,0,0,0-.177.073.248.248,0,0,0-.073.177v33a.25.25,0,0,0,.25.25h27a.25.25,0,0,0,.25-.25V17.018L27.982,7.25Z" fill="#15102c"/><path d="M39,17.75H28.5a1.25,1.25,0,0,1-1.25-1.25V6a1.25,1.25,0,1,1,2.5,0v9.25H39a1.25,1.25,0,0,1,0,2.5Z" fill="#15102c"/><path d="M13.65,36V28.8h1.28v3a1.766,1.766,0,0,1,.67-.64,1.976,1.976,0,0,1,.98-.24A1.773,1.773,0,0,1,18,31.5a2.5,2.5,0,0,1,.51,1.7V36H17.24V33.32a1.589,1.589,0,0,0-.26-.98.927.927,0,0,0-.8-.34,1.188,1.188,0,0,0-.9.38,1.506,1.506,0,0,0-.35,1.06V36Z" fill="#15102c"/><path d="M21.944,36a1.928,1.928,0,0,1-1.25-.38,1.652,1.652,0,0,1-.47-1.35V32.11h-.85V31.04h.85l.15-1.33H21.5v1.33h1.34v1.07H21.5v2.17a.669.669,0,0,0,.15.5.866.866,0,0,0,.54.13h.62V36Z" fill="#15102c"/><path d="M23.943,36V31.04h1.13l.11.67a1.73,1.73,0,0,1,.63-.57,1.878,1.878,0,0,1,.92-.22,1.7,1.7,0,0,1,1.63.89,1.937,1.937,0,0,1,.72-.65,2.129,2.129,0,0,1,1-.24,1.9,1.9,0,0,1,1.49.58,2.471,2.471,0,0,1,.52,1.7V36h-1.28V33.32a1.637,1.637,0,0,0-.25-.98.855.855,0,0,0-.75-.34,1.045,1.045,0,0,0-.84.38,1.633,1.633,0,0,0-.31,1.06V36h-1.28V33.32a1.637,1.637,0,0,0-.25-.98.893.893,0,0,0-.77-.34,1.034,1.034,0,0,0-.83.38,1.633,1.633,0,0,0-.31,1.06V36Z" fill="#15102c"/><path d="M33.308,36V28.8h1.28V36Z" fill="#15102c"/></g></svg>