<svg xmlns="http://www.w3.org/2000/svg" width="24" height="21" viewBox="0 0 24 21"><g transform="translate(-0.25 -0.048)"><path d="M12.25.048A.75.75,0,0,1,12.6.136l11.25,6a.75.75,0,0,1,0,1.324l-11.25,6a.75.75,0,0,1-.706,0l-11.25-6a.75.75,0,0,1,0-1.324l11.25-6A.75.75,0,0,1,12.25.048ZM21.906,6.8,12.25,1.648,2.594,6.8l9.656,5.15Z" fill="#333"/><path d="M17.875,21.048a.75.75,0,0,1-.75-.75V10.248L11.9,7.459A.75.75,0,0,1,12.6,6.136l5.625,3a.75.75,0,0,1,.4.662V20.3A.75.75,0,0,1,17.875,21.048Z" fill="#333"/><path d="M12.25,18.423a11.2,11.2,0,0,1-9.076-4.214,1.506,1.506,0,0,1-.3-.9V8.2a.75.75,0,1,1,1.5,0v5.111A8.859,8.859,0,0,0,6.7,15.4a10.26,10.26,0,0,0,5.545,1.528A10.26,10.26,0,0,0,17.8,15.4a8.863,8.863,0,0,0,2.331-2.088V8.2a.75.75,0,1,1,1.5,0v5.111a1.5,1.5,0,0,1-.3.9A11.2,11.2,0,0,1,12.25,18.423Z" fill="#333"/></g></svg>