<svg xmlns="http://www.w3.org/2000/svg" width="17.786" height="13.5" viewBox="0 0 17.786 13.5"><g transform="translate(-0.25 -0.25)"><path d="M13.527,6.417H7.264a.75.75,0,0,1,0-1.5h6.264a.75.75,0,0,1,0,1.5Z" fill="#777"/><path d="M13.527,9.083H7.264a.75.75,0,0,1,0-1.5h6.264a.75.75,0,0,1,0,1.5Z" fill="#777"/><path d="M16.033,13.75H2.253a.75.75,0,1,1,0-1.5.465.465,0,0,0,.339-.154.631.631,0,0,0,.163-.429v-10A1.432,1.432,0,0,1,3.143.682,1.365,1.365,0,0,1,4.132.25H16.66a1.364,1.364,0,0,1,.99.432,1.432,1.432,0,0,1,.387.985v10a2.117,2.117,0,0,1-.57,1.456A1.977,1.977,0,0,1,16.033,13.75ZM4.176,12.25H16.033a.466.466,0,0,0,.339-.154.631.631,0,0,0,.163-.429V1.75H4.256v9.917A2.17,2.17,0,0,1,4.176,12.25Z" fill="#777"/><path d="M2.253,13.75A1.977,1.977,0,0,1,.82,13.123a2.117,2.117,0,0,1-.57-1.456v-8a.75.75,0,0,1,1.5,0v8a.631.631,0,0,0,.164.429.465.465,0,0,0,.339.154.75.75,0,1,1,0,1.5Z" fill="#777"/></g></svg>