<svg xmlns="http://www.w3.org/2000/svg" width="19.5" height="18" viewBox="0 0 19.5 18"><g transform="translate(-1.25 -1.048)"><path d="M2.75,4.048h16.5a1.5,1.5,0,0,1,1.5,1.5v12a1.5,1.5,0,0,1-1.5,1.5H2.75a1.5,1.5,0,0,1-1.5-1.5v-12A1.5,1.5,0,0,1,2.75,4.048Zm16.5,13.5v-12H2.749v12Z" fill="#333"/><path d="M14.75,5.548A.75.75,0,0,1,14,4.8V3.3a.75.75,0,0,0-.75-.75H8.75A.75.75,0,0,0,8,3.3V4.8a.75.75,0,0,1-1.5,0V3.3a2.25,2.25,0,0,1,2.25-2.25h4.5A2.25,2.25,0,0,1,15.5,3.3V4.8A.75.75,0,0,1,14.75,5.548Z" fill="#333"/><path d="M11.027,13.048h-.058a18.686,18.686,0,0,1-9.345-2.509.75.75,0,1,1,.751-1.3A17.19,17.19,0,0,0,11,11.548,17.189,17.189,0,0,0,19.625,9.24a.75.75,0,1,1,.751,1.3A18.69,18.69,0,0,1,11.027,13.048Z" fill="#333"/><path d="M12.125,10.048H9.875a.75.75,0,0,1,0-1.5h2.25a.75.75,0,1,1,0,1.5Z" fill="#333"/></g></svg>