<svg xmlns="http://www.w3.org/2000/svg" width="20.996" height="18.749" viewBox="0 0 20.996 18.749"><path d="M10.5,0A2.25,2.25,0,0,0,8.553,1.123L.3,15.372a2.25,2.25,0,0,0,1.947,3.377h16.5A2.25,2.25,0,0,0,20.7,15.372L12.447,1.123A2.25,2.25,0,0,0,10.5,0Zm-.375,1.6a.75.75,0,0,1,1.024.274L19.4,16.124a.75.75,0,0,1-.649,1.126H2.252A.75.75,0,0,1,1.6,16.124l-.644-.373.644.373L9.851,1.874A.75.75,0,0,1,10.125,1.6ZM11.25,7.5a.75.75,0,0,0-1.5,0v3.75a.75.75,0,0,0,1.5,0Zm.375,7.125A1.125,1.125,0,1,1,10.5,13.5,1.125,1.125,0,0,1,11.625,14.625Z" transform="translate(-0.002)" fill="#1e1932" fill-rule="evenodd"/></svg>