<svg xmlns="http://www.w3.org/2000/svg" width="18.766" height="18.002" viewBox="0 0 18.766 18.002"><g transform="translate(-0.25 -0.749)"><path d="M9.25,10.5a.75.75,0,0,1-.75-.75V5.25a.75.75,0,0,1,1.5,0v4.5A.75.75,0,0,1,9.25,10.5Z" fill="#fab42d"/><path d="M13.146,12.75a.746.746,0,0,1-.374-.1l-3.9-2.25a.75.75,0,0,1,.75-1.3l3.9,2.25a.75.75,0,0,1-.376,1.4Z" fill="#fab42d"/><path d="M18.266,7.848h-3.75a.75.75,0,0,1,0-1.5h3v-3a.75.75,0,1,1,1.5,0V7.1A.75.75,0,0,1,18.266,7.848Z" fill="#fab42d"/><path d="M9.245,18.751A9,9,0,1,1,15.614,3.386L18.8,6.568a.75.75,0,0,1-1.061,1.061L14.553,4.447a7.5,7.5,0,1,0,0,10.607.75.75,0,0,1,1.061,1.061,9.013,9.013,0,0,1-6.369,2.637Z" fill="#fab42d"/></g></svg>