<svg xmlns="http://www.w3.org/2000/svg" width="18" height="20.25" viewBox="0 0 18 20.25"><g transform="translate(-0.75 -0.25)"><path d="M9.75,20.5A.75.75,0,0,1,9,19.75v-6a.75.75,0,0,1,1.5,0v6A.75.75,0,0,1,9.75,20.5Z" fill="#1e1932"/><path d="M15.75,1.75h-12a.75.75,0,0,1,0-1.5h12a.75.75,0,0,1,0,1.5Z" fill="#1e1932"/><path d="M18,14.5H1.5a.75.75,0,0,1,0-1.5H18a.75.75,0,0,1,0,1.5Z" fill="#1e1932"/><path d="M3,14.5a.751.751,0,0,1-.739-.88L4.511.87a.75.75,0,1,1,1.477.261L3.739,13.88A.75.75,0,0,1,3,14.5Z" fill="#1e1932"/><path d="M16.5,14.5a.75.75,0,0,1-.738-.62L13.511,1.13A.75.75,0,0,1,14.989.87l2.25,12.75a.751.751,0,0,1-.739.88Z" fill="#1e1932"/></g></svg>