<svg xmlns="http://www.w3.org/2000/svg" width="21.848" height="16.66" viewBox="0 0 21.848 16.66"><path d="M4.136,17.91a1.5,1.5,0,0,1-1.461-1.155L.29,6.6A1.5,1.5,0,0,1,2.359,4.884L7.1,6.992l2.761-4.97a1.5,1.5,0,0,1,2.622,0l2.761,4.97,4.742-2.108a1.49,1.49,0,0,1,.609-.129A1.5,1.5,0,0,1,22.058,6.6L19.669,16.753a1.5,1.5,0,0,1-1.869,1.1,24.929,24.929,0,0,0-13.26,0A1.494,1.494,0,0,1,4.136,17.91ZM1.75,6.254,4.135,16.411v0h0a26.428,26.428,0,0,1,14.067,0h.005L20.6,6.255,15.856,8.362a1.5,1.5,0,0,1-1.921-.642L11.175,2.75,8.413,7.72a1.5,1.5,0,0,1-1.92.642Z" transform="translate(-0.25 -1.25)" fill="#1e1932"/></svg>