<svg xmlns="http://www.w3.org/2000/svg" width="19.69" height="18.749" viewBox="0 0 19.69 18.749"><g transform="translate(-1.25 -1.048)"><path d="M11.095,14.548a6.75,6.75,0,1,1,6.75-6.75A6.758,6.758,0,0,1,11.095,14.548Zm0-12a5.25,5.25,0,1,0,5.25,5.25A5.256,5.256,0,0,0,11.095,2.548Z" fill="#333"/><path d="M20.19,19.8a.75.75,0,0,1-.65-.375,9.753,9.753,0,0,0-8.445-4.874h0a9.753,9.753,0,0,0-8.445,4.874.75.75,0,1,1-1.3-.75,11.253,11.253,0,0,1,9.744-5.624h0a11.253,11.253,0,0,1,9.744,5.624A.75.75,0,0,1,20.19,19.8Z" fill="#333"/></g></svg>