<svg xmlns="http://www.w3.org/2000/svg" width="15" height="19.5" viewBox="0 0 15 19.5"><g transform="translate(-4.25 -1.048)"><path d="M5,20.548a.75.75,0,0,1-.75-.75V5.548a1.5,1.5,0,0,1,1.5-1.5h9a1.5,1.5,0,0,1,1.5,1.5V19.8a.75.75,0,0,1-1.186.61l-4.815-3.439L5.436,20.408A.75.75,0,0,1,5,20.548Zm5.249-5.25a.749.749,0,0,1,.436.14l4.065,2.9V5.548h-9V18.34l4.063-2.9A.749.749,0,0,1,10.249,15.3Z" fill="#333"/><path d="M18.5,17.548a.75.75,0,0,1-.436-.14l-3-2.143a.75.75,0,0,1,.872-1.221l1.814,1.3V2.548h-9V4.8a.75.75,0,0,1-1.5,0V2.548a1.5,1.5,0,0,1,1.5-1.5h9a1.5,1.5,0,0,1,1.5,1.5V16.8a.75.75,0,0,1-.75.75Z" fill="#333"/></g></svg>