<svg xmlns="http://www.w3.org/2000/svg" width="56.727" height="56.727" viewBox="0 0 56.727 56.727"><g transform="translate(-0.909 -0.273)"><path d="M29.273,57A28.371,28.371,0,0,1,18.232,2.5,28.37,28.37,0,0,1,40.314,54.77,28.188,28.188,0,0,1,29.273,57Zm0-52.364a24.007,24.007,0,0,0-9.341,46.115A24.007,24.007,0,0,0,38.614,6.522,23.848,23.848,0,0,0,29.273,4.636Z" fill="#5bb949"/><path d="M25.273,39.546a2.176,2.176,0,0,1-1.507-.6l-8-7.636a2.182,2.182,0,1,1,3.013-3.156l6.493,6.2L39.766,20.513a2.182,2.182,0,0,1,3.013,3.156l-16,15.273A2.176,2.176,0,0,1,25.273,39.546Z" fill="#5bb949"/></g></svg>