<svg xmlns="http://www.w3.org/2000/svg" width="19.5" height="19.5" viewBox="0 0 19.5 19.5"><g transform="translate(-0.25 -0.048)"><path d="M10,19.548A9.75,9.75,0,1,1,19.75,9.8,9.761,9.761,0,0,1,10,19.548Zm0-18A8.25,8.25,0,1,0,18.25,9.8,8.259,8.259,0,0,0,10,1.548Z" fill="#333"/><path d="M10.375,14.673A.375.375,0,1,1,10,14.3.375.375,0,0,1,10.375,14.673Z" fill="#333"/><path d="M10,13.548a1.125,1.125,0,1,1-1.125,1.125A1.126,1.126,0,0,1,10,13.548Z" fill="#333"/><path d="M10,12.048a.75.75,0,0,1-.75-.75v-.75A.75.75,0,0,1,10,9.8,1.875,1.875,0,1,0,8.125,7.923a.75.75,0,0,1-1.5,0,3.374,3.374,0,1,1,4.125,3.291V11.3A.75.75,0,0,1,10,12.048Z" fill="#333"/></g></svg>