<svg xmlns="http://www.w3.org/2000/svg" width="13.538" height="17.231" viewBox="0 0 13.538 17.231"><g transform="translate(-2.99 -0.885)"><path d="M9.759.885a6.769,6.769,0,0,1,6.769,6.769,11.56,11.56,0,0,1-3.228,7.4A19.581,19.581,0,0,1,10.112,18a.615.615,0,0,1-.706,0,19.581,19.581,0,0,1-3.188-2.946,11.56,11.56,0,0,1-3.228-7.4A6.769,6.769,0,0,1,9.759.885Zm0,15.846a19.408,19.408,0,0,0,2.631-2.5C13.717,12.7,15.3,10.316,15.3,7.654a5.538,5.538,0,0,0-11.077,0c0,2.662,1.581,5.045,2.907,6.575A19.408,19.408,0,0,0,9.759,16.73Z" fill="#777"/><path d="M9.758,10.731a3.077,3.077,0,1,1,3.077-3.077A3.08,3.08,0,0,1,9.758,10.731Zm0-4.923A1.846,1.846,0,1,0,11.6,7.654,1.848,1.848,0,0,0,9.758,5.808Z" fill="#777"/></g></svg>