<svg xmlns="http://www.w3.org/2000/svg" width="14.897" height="17.646" viewBox="0 0 14.897 17.646"><g transform="translate(-4.494 -2.177)"><path d="M18.13,19.823H5.754a1.26,1.26,0,0,1-1.26-1.26V3.438a1.26,1.26,0,0,1,1.26-1.26h8.251a.573.573,0,0,1,.405.168l4.813,4.813a.573.573,0,0,1,.168.405v11a1.26,1.26,0,0,1-1.26,1.26ZM5.754,3.323a.115.115,0,0,0-.115.115V18.563a.115.115,0,0,0,.034.081.114.114,0,0,0,.081.034H18.13a.115.115,0,0,0,.044-.009.115.115,0,0,0,.07-.106V7.8L13.768,3.323H5.754Z" fill="#777"/><path d="M18.818,8.135H14a.573.573,0,0,1-.573-.573V2.75a.573.573,0,0,1,1.146,0V6.99h4.24a.573.573,0,1,1,0,1.146Z" fill="#777"/><path d="M7.275,16.958v-3.85H8.7a1.68,1.68,0,0,1,.764.154,1.033,1.033,0,0,1,.451.424,1.295,1.295,0,0,1,.005,1.194,1.072,1.072,0,0,1-.445.429,1.656,1.656,0,0,1-.776.16h-.72v1.49Zm.7-2.062h.677a.727.727,0,0,0,.528-.159.6.6,0,0,0,.165-.446.591.591,0,0,0-.165-.446.712.712,0,0,0-.528-.165H7.979Z" fill="#777"/><path d="M10.616,16.958v-3.85H11.93a2.267,2.267,0,0,1,1.111.242,1.473,1.473,0,0,1,.649.671,2.238,2.238,0,0,1,.215,1.012,2.272,2.272,0,0,1-.215,1.017,1.508,1.508,0,0,1-.649.671,2.31,2.31,0,0,1-1.111.236Zm.7-.6H11.9a1.6,1.6,0,0,0,.765-.154.906.906,0,0,0,.4-.451,2.157,2.157,0,0,0,0-1.424.9.9,0,0,0-.4-.457,1.55,1.55,0,0,0-.765-.16H11.32Z" fill="#777"/><path d="M14.526,16.958v-3.85h2.486v.566H15.23v1.078h1.441v.556H15.23v1.65Z" fill="#777"/></g></svg>